<?xml version="1.0" encoding="UTF-8"?>
<svg xmlns="http://www.w3.org/2000/svg" version="1.1" xmlns:xlink="http://www.w3.org/1999/xlink" viewBox="0 0 565.33 633.82">
  <!-- Generator: Adobe Illustrator 29.8.1, SVG Export Plug-In . SVG Version: 2.1.1 Build 2)  -->
  <defs>
    <style>
      .st0 {
        fill: url(#linear-gradient2);
      }

      .st1 {
        fill: url(#linear-gradient10);
      }

      .st2 {
        fill: #fc6605;
      }

      .st3 {
        fill: url(#linear-gradient1);
      }

      .st4 {
        fill: url(#linear-gradient9);
      }

      .st5 {
        fill: url(#linear-gradient8);
      }

      .st6 {
        isolation: isolate;
      }

      .st7 {
        fill: url(#linear-gradient7);
      }

      .st8 {
        fill: url(#linear-gradient4);
      }

      .st9 {
        fill: #0057a5;
      }

      .st10 {
        fill: url(#linear-gradient5);
      }

      .st11 {
        fill: url(#linear-gradient3);
      }

      .st12 {
        fill: url(#linear-gradient6);
      }

      .st13 {
        fill: url(#linear-gradient);
      }

      .st14 {
        mix-blend-mode: multiply;
        opacity: .6;
      }
    </style>
    <linearGradient id="linear-gradient" x1="267.14" y1="502.81" x2="267.14" y2="45.23" gradientUnits="userSpaceOnUse">
      <stop offset="0" stop-color="#01448a"/>
      <stop offset="1" stop-color="#1a69ae"/>
    </linearGradient>
    <linearGradient id="linear-gradient1" x1="325.17" y1="502.81" x2="325.17" y2="45.23" xlink:href="#linear-gradient"/>
    <linearGradient id="linear-gradient2" x1="440.01" y1="502.81" x2="440.01" y2="45.23" xlink:href="#linear-gradient"/>
    <linearGradient id="linear-gradient3" x1="85.21" y1="502.81" x2="85.21" y2="45.23" xlink:href="#linear-gradient"/>
    <linearGradient id="linear-gradient4" x1="345.62" y1="369.22" x2="358.86" y2="330.29" gradientUnits="userSpaceOnUse">
      <stop offset="0" stop-color="#fff"/>
      <stop offset="1" stop-color="#000"/>
    </linearGradient>
    <linearGradient id="linear-gradient5" x1="240.4" y1="312.32" x2="221.72" y2="344.1" xlink:href="#linear-gradient4"/>
    <linearGradient id="linear-gradient6" x1="377.09" y1="293.99" x2="418.97" y2="216.68" xlink:href="#linear-gradient4"/>
    <linearGradient id="linear-gradient7" x1="515.18" y1="339.05" x2="480.58" y2="348.35" xlink:href="#linear-gradient4"/>
    <linearGradient id="linear-gradient8" x1="483.58" y1="447.76" x2="527.96" y2="410.54" xlink:href="#linear-gradient4"/>
    <linearGradient id="linear-gradient9" x1="156.86" y1="421.18" x2="235.96" y2="438" xlink:href="#linear-gradient4"/>
    <linearGradient id="linear-gradient10" x1="114.37" y1="341.87" x2="-21.29" y2="327.56" xlink:href="#linear-gradient4"/>
  </defs>
  <g class="st6">
    <g id="Layer_1">
      <g>
        <g>
          <path class="st13" d="M432.07,305.37s.01-.01,0-.02c-3.83-44.69-22.96-89.26-66.1-98.56-38.49-8.29-77.04,8.49-101.92,37.58-12.64,14.79-23.18,32.61-30.58,51.35-4.04,10.21-7.14,20.7-9.15,31.12-4.12-7.18-8.25-15.52-11.88-25-8.86-23.16-11.37-44.31-11.78-60.01-1.22,2.39-2.6,4.81-4.16,7.23-12.91,20.09-31.88,30.84-45.9,36.6-8.6-12.83-23.61-39.5-21.97-73.58,2.88-59.45,54.86-113.14,100.41-113.43,20.25-.13,41.13,15.54,45.11,35.66l-7.18-9.85c-5.3-4.83-11.39-10.25-18.73-11.51-.44.37,4.95,8.9,5.53,10.06,10.57,21.21,10.62,44.2,2.36,66.25,11.03-3.66,21.02-10.01,28.29-19.16l6.11-9.71c-1.96,24.7-15.39,46.46-38.99,55.48-25.5,9.75-56.87,1.92-65.08-26.39-7.12-24.55,9.3-49.17,36.2-42.91,11.01,2.57,16.88,14.44,15.73,25.12.77,1.14,1.88-6.64,1.89-7.4.35-13.14-13.94-23.23-26.14-23.6-30.26-.96-42.81,30.49-33.32,55.76,13.77,36.66,60.46,39.3,88.91,18.22,28.54-21.14,32.91-65.9,16.4-95.76,17,6.02,36.15,5.68,51.57-4.24,26.7-17.18,30.84-55.72,14.03-81.32-9.09-13.86-25.15-23.5-41.08-27.4,1.57,4.19,4.71,7.56,6.7,11.64,13.71,28.28-2.1,64.76-35.02,67.57-5.09.44-11.07-.71-16.26-.43,1.33,1.46,4.16,2.5,6,3.17,13.23,4.76,27.55,3.77,40.79-.26l-5.77,3.25c-10.58,4.31-21.39,6.1-32.76,4.53-13.62-1.88-25.43-10.2-39.93-11.56-73.98-6.96-127.36,62.75-132.32,130.76-1.94,26.59.55,49.99,7.44,71.63,3.39,10.64,11.18,23.31,24.55,43.63,5.35,8.13,11.59,17.48,18.78,28.42,10.48,15.92,20.98,31.14,24.83,54.5.27,1.7,2.18,13.63,1.18,24.52-4.04,43.93-55.46,72.52-63.08,76.63,10.42-1.73,39.11-7.92,62.64-32.89,29.23-31,30.01-69.18,29.42-82.7-1.1-24.79-10.22-43.19-14.21-51.04-8.48-16.65-18.83-28.34-26.27-35.55,4.45-3.6,8.89-7.18,13.33-10.77,3.23,5.81,8.42,14.16,16.13,23.14,10.31,11.98,21.64,25.08,40.26,31.09,12.47,4.02,26.46,4.25,42.72.38,11.69-2.79,22.57-8.3,34.37-10.78,12.2-2.57,23.96-2.63,35.14-.65,2.56.45,5.08,1.01,7.57,1.68,22.6,5.97,42.57,20.29,58.64,39.02.73.84,2.71,4.34,2.92,4.5.75.58,1.46-.71,1.78-1.22,2.27-3.59,5.01-12.34,6.25-16.64,2.61-9.09,4.5-19.47,5.5-30.47,1.04-11.44,1.13-23.56.09-35.67ZM401.23,352.52l-7.39-16.35c-18.36-34.84-61.64-36.2-90.79-13.83-19.09,14.65-28.76,37.95-58.66,23.88-1.03-.48-3.85-1.73-5.06-2.9-.1-.11-.19-.2-.29-.31-.16-.21-.26-.42-.27-.61-.11-1.88,5.76-14.37,7-17.01,3.1-6.61,6.58-13.29,10.4-19.82,16.36-27.93,39.02-53.09,65.76-58.15h.03c11.25-2.13,23.23-.68,35.76,5.64t.02.01c2.27,1.14,4.53,2.43,6.83,3.9.01.01.03.02.05.03,2.74,1.74,5.48,3.72,8.26,5.95.03.02.06.05.11.09,1.63,1.3,3.26,2.7,4.91,4.19h.01c.53.47,1.05.94,1.58,1.44,18.34,17.11,25,41.25,23.94,65.48-.26,6.16-1.02,12.34-2.21,18.39Z"/>
          <path class="st2" d="M157.55,514.44l.48-1.74c29.73-9.44,48.2-33.96,55.85-63.19.96-3.68,1.29-7.63,2.31-11.29.22-.8-.45-1.32,1.04-1.4,1.07,12.67-1.34,26.31-6.4,37.94-9.31,21.41-30.21,36.38-53.28,39.68Z"/>
          <path class="st2" d="M88.12,494.85c-14.79-24.45-33.81-43.93-52.92-48.85l-11.14-1.64c1.69-2.15,4.45-2.77,7.21-3.14,15.86-2.11,37.34,16.12,51.08,39.65.48.83,8.81,15.97,5.76,13.98Z"/>
          <path class="st3" d="M373.94,280.09c-4.45-1.79-8.03-5.05-12.51-7.2-32.18-15.48-62.91-2.31-83.58,24.01-.47.6-.03,1.37-1.45,1,2.44-8.8,9.74-17.17,16.6-23,24.41-20.76,60.1-20.03,80.94,5.2Z"/>
          <path class="st0" d="M528.26,461.85c-1.01,1.2-6.2,6.87-7.48,7.72h-.01c-.06.04-.11.06-.15.09-.93.38-.72-.35-.86-.77-.88-2.64-.96-6.12-1.89-8.98-.02-.09-.08-.26-.16-.49-.6-1.75-7.05-14.67-40.32-18.93-9.92-1.27-18.82-1.34-27.76-.75-3.51.23-7.03.56-10.62.96-45.72,5.08-55.79,15.86-75.99,9.3-1.74-.56-19.39-6.21-28.7-21.88-10.08-16.99-6.36-38.06.55-55.79,4.43-11.41,10.19-21.43,14.43-28.08.01-.01.02-.03.03-.04,2.93-4.62,5.14-7.59,5.65-8.27l6.12.16c-.57.96-.99,2.12-1.4,3-1.05,2.25-1.99,4.53-2.8,6.82-3.69,10.27-5.09,20.79-3.97,30.32,1.17,9.92,5.06,18.78,11.9,25.17,11.45,10.68,28.28,10.5,31.71,10.37.12,0,.21-.01.35-.01,20.09-.89,37.83-7.57,57.93-9.61,0,0,17.12-1.74,50.76,2.08,4.25.48,8.68,1.07,8.68,1.07,2.58.34,4.83.67,6.69.94l-4.32-7.46c-15.7-25.07-53.03-45.24-49.06-79.17,1-8.56,14.09-31.83,20.08-38.3.57-.62.89-1.34,1.91-1.1-.23,6.15,1.05,12.73,2.67,18.68,8.32,30.66,38.24,44.14,51.83,71.19,4.13,8.2,6.53,16.58,7.42,24.92,2.59,23.92-7.08,47.66-23.21,66.84Z"/>
          <path class="st2" d="M55.04,264.26c3.98-12.91-28.68-25.66-29.66-30.4-.08-6.88,18.22-29.77,18.08-32.48-.29-5.56-18.23-10.13-16.66-15.24,6.38-10.47,8.13-25.5,23.06-16.46,2.87-2.74-14.51-15.36-.41-17.58,3.58-.56,27.66,19.02,29.58,23.51,6.7,15.68-11.83,29.59-11.93,34.11-.06,2.96,14.72,9.47,11.19,25.16-.98,4.38-18.19,34.5-23.25,29.37Z"/>
          <path class="st2" d="M265.18,485.33c3.98-12.91-28.68-25.66-29.66-30.4-.08-6.88,18.22-29.77,18.08-32.48-.29-5.56-18.23-10.13-16.66-15.24,6.38-10.47,8.13-25.5,23.06-16.46,2.87-2.74-14.51-15.36-.41-17.58,3.58-.56,27.66,19.02,29.58,23.51,6.7,15.68-11.83,29.59-11.93,34.11-.06,2.96,14.72,9.47,11.19,25.16-.98,4.38-18.19,34.5-23.25,29.37Z"/>
          <path class="st2" d="M470.35,457.67c-8.69-8.12-18.83-9.31-22.07-9.56-.06,1.09-.17,2.19-.33,3.3-2.08,14.29-11.96,24.48-19.31,30.4.98,4.74,33.64,17.49,29.66,30.4,5.07,5.13,22.27-24.99,23.25-29.37,2.92-13-8.44-22.59-11.19-25.16Z"/>
          <path class="st2" d="M302.77,492.57c3.77,4.73,13.63,6.77,18.7,3.64,11.5-7.1,2.5-26.71-.7-36.13-.72-2.12-3.3-2.25.2-4.5,17.59,10.7,24.27,48.7-.91,53.01-20.35,3.49-28.8-20.35-11.31-31.51,12.04-7.68,10.52,19.47-5.98,15.48Z"/>
          <path class="st11" d="M155.18,392.51c-3.25-13.87-13.28-24.95-25.22-35.02-5.42-4.56-11.22-8.92-16.97-13.22-22.16-16.61-44.95-33.68-44.25-61.24-16.06,16.15-26.73,31.45-33.46,42.42-13,21.2-22.69,37.46-21.67,59.7.27,6,.87,16.56,6.92,27.78,11.26,20.87,26.46,16.27,52.23,42.96,12.34,12.78,21.19,26.62,23.39,30.12,4.05,6.43,7.07,12.09,9.18,16.33,53.74-59.09,54.3-90.89,49.85-109.85ZM125.09,440.94c-2.24,8.43-6.85,14.49-10.14,18.07-1.42-8.61-4.79-21.39-14.11-32.98-18.45-22.94-42.64-20.84-52.05-38.89-4.25-8.15-6.64-22.69,7.6-49.67,2.7,5.89,7.2,14.23,14.64,22.61,14.56,16.4,23.44,13.91,36.52,27.78.61.66,3.26,3.53,6.4,7.99,6.84,9.73,15.97,27.02,11.13,45.09Z"/>
          <g class="st14">
            <path class="st8" d="M356.9,345.9c-3.69,10.27-5.09,20.79-3.97,30.32-6.01-1.3-12.04-2.6-18.06-3.91,4.43-11.41,10.19-21.43,14.43-28.08.01-.01.02-.03.03-.04,1.16.15,2.43.35,3.77.64,1.37.31,2.65.66,3.8,1.02v.04Z"/>
            <path class="st10" d="M245.78,325.39c-1.25,2.64-7.11,15.13-7,17.01,0,.14.36.52.27.61-.32.33-4.94-3.13-8.4-6.87-1.86-2.01-4.24-5.04-6.32-9.3.95-4.84,2.18-10.09,3.81-15.64,1.53-5.2,3.32-10.38,5.34-15.48,7.56,3.29,15.14,6.56,22.71,9.85-3.82,6.53-7.3,13.21-10.4,19.82Z"/>
            <path class="st12" d="M431.99,341.04c-9.51-2.31-19.04-4.61-28.55-6.92,1.05-24.22-5.61-48.37-23.94-65.48-.53-.49-1.05-.97-1.58-1.44h-.01c-1.64-1.49-3.28-2.89-4.91-4.19-.04-.03-.08-.06-.11-.09-2.78-2.23-5.52-4.21-8.26-5.95-.02-.01-.04-.02-.05-.03-2.3-1.47-4.56-2.76-6.83-3.9t-.02-.01c-12.53-6.31-24.5-7.76-35.76-5.64h-.03c9.98-3.94,31.58-10.67,55.03-3.15,25.7,8.25,45.98,31.16,55.11,61.09t0,.02c1.04,12.11.96,24.23-.09,35.67Z"/>
            <path class="st7" d="M551.48,395.01h-17.5c-9.49-21.46-20.8-34.47-29.7-42.49-6.18-5.57-12.34-9.77-16.64-19.07-5.43-11.71-4.35-23.76-3.76-30.25.89-9.98,3.56-17.88,5.68-22.99-.23,6.15,1.05,12.73,2.67,18.68,8.32,30.66,38.24,44.14,51.83,71.19,4.13,8.2,6.53,16.58,7.42,24.92Z"/>
            <path class="st5" d="M523.6,460.88c-.58,3.61-1.75,6.55-2.82,8.7h-.01c-.06.04-.11.06-.15.09-.93.38-.72-.35-.86-.77-.88-2.64-.96-6.12-1.89-8.98-.02-.09-.08-.26-.16-.49-.6-1.75-7.05-14.67-40.32-18.93-9.92-1.27-18.82-1.34-27.76-.75-.1-5.42-.2-10.84-.3-16.27,20.69-4.05,36.52-1.29,45.45,1.07,15.22,4.03,20.21,9.5,21.84,11.46,5.08,6.1,8.5,15.32,6.98,24.88Z"/>
            <path class="st4" d="M195.39,418.7c-.74,40.79-33.23,68.52-38.51,73.02-15.49,13.22-31.38,19.34-41.08,22.26,7.62-4.11,59.05-32.71,63.08-76.63,1-10.9-.91-22.83-1.18-24.52-3.84-23.37-14.35-38.58-24.83-54.5-7.19-10.94-13.43-20.29-18.78-28.42,5.96-3.76,11.91-7.52,17.87-11.27,5.47,7.78,12.97,19.26,20.52,33.91,15.12,29.36,23.29,45.21,22.9,66.18Z"/>
            <path class="st1" d="M129.96,357.49c-5.34,12.79-10.67,25.57-16.01,38.35-3.14-4.46-5.79-7.33-6.4-7.99-13.08-13.87-21.96-11.38-36.52-27.78-7.43-8.39-11.94-16.72-14.64-22.61.55-7.19,1.56-15.23,3.34-23.88,2.42-11.77,5.69-22.01,9.01-30.55-.7,27.55,22.09,44.63,44.25,61.24,5.74,4.3,11.54,8.65,16.97,13.22Z"/>
          </g>
        </g>
        <g>
          <path class="st9" d="M10.24,580.73c0-7.07,1.98-12.65,5.95-16.75,3.97-4.1,9.96-6.16,17.97-6.16,2.69,0,5.31.12,7.87.35,2.56.24,4.71.62,6.46,1.16.67.2,1.09.42,1.26.66.17.24.25.62.25,1.16v33.51l-.1,3.63c-.07,1.15-.14,2.19-.2,3.13,0,.74-.2,1.23-.61,1.46s-.94.42-1.61.55c-2.36.4-4.59.66-6.71.76-2.12.1-4.16.15-6.11.15h-1.41c-7.54,0-13.26-1.75-17.16-5.25-3.9-3.5-5.85-8.78-5.85-15.85v-2.52ZM18.72,582.25c0,4.78,1.18,8.24,3.53,10.4,2.35,2.15,6.19,3.23,11.51,3.23,1.55,0,2.86-.02,3.94-.05,1.08-.03,2.35-.15,3.84-.35v-29.27c-1.28-.13-2.56-.23-3.84-.3-1.28-.07-2.79-.1-4.54-.1-4.85,0-8.46,1.25-10.85,3.74-2.39,2.49-3.58,6.06-3.58,10.7v2.02ZM18.92,538.94c0-.67.22-1.21.66-1.61.44-.4.99-.61,1.67-.61h3.94c.67,0,1.23.2,1.67.61.44.4.66.94.66,1.61v5.45c0,.61-.24,1.11-.71,1.51-.47.4-1.01.61-1.61.61h-3.94c-.67,0-1.23-.2-1.67-.61-.44-.4-.66-.91-.66-1.51v-5.45ZM35.37,538.94c0-.67.25-1.21.76-1.61.5-.4,1.06-.61,1.67-.61h3.94c.61,0,1.14.2,1.61.61.47.4.71.94.71,1.61v5.45c0,.61-.24,1.11-.71,1.51-.47.4-1.01.61-1.61.61h-3.94c-.61,0-1.16-.2-1.67-.61-.5-.4-.76-.91-.76-1.51v-5.45Z"/>
          <path class="st9" d="M50.4,621.51c0-.94.57-1.41,1.72-1.41h2.12c2.22,0,4.04-.1,5.45-.3,1.41-.2,2.56-.64,3.43-1.31.87-.67,1.48-1.67,1.82-2.98.34-1.31.5-3.08.5-5.3v-44.71c0-.54.17-.99.5-1.36.34-.37.77-.55,1.31-.55h4.95c.47,0,.87.19,1.21.55.34.37.5.83.5,1.36v30.18h9.29v8.68h-9.39v6.46c0,2.15-.14,4.14-.4,5.95-.27,1.82-.77,3.4-1.51,4.74-1.35,2.35-3.21,4-5.6,4.95-2.39.94-5.54,1.41-9.44,1.41-.34,0-1.06-.03-2.17-.1-1.11-.07-2-.17-2.67-.3-.67-.14-1.11-.32-1.31-.56s-.3-.59-.3-1.06v-4.34Z"/>
          <path class="st9" d="M79.16,596.98c0-.4.34-.72,1.01-.96.67-.23,1.48-.35,2.42-.35h4.54c.67,0,1.41-.03,2.22-.1.81-.07,1.58-.22,2.32-.45.74-.23,1.36-.61,1.87-1.11.5-.5.76-1.19.76-2.07v-26.44c0-.54.18-.99.56-1.36.37-.37.82-.55,1.36-.55h4.64c.54,0,.99.19,1.36.55.37.37.55.83.55,1.36v27.76c.2.54.62.96,1.26,1.26.64.3,1.35.54,2.12.71.77.17,1.56.29,2.37.35.81.07,1.51.1,2.12.1h1.41v8.68h-1.21c-2.09,0-4.32-.22-6.71-.66-2.39-.44-4.36-1.33-5.9-2.67-1.68,1.35-3.68,2.24-6.01,2.67-2.32.44-4.43.66-6.31.66h-3.33c-.94,0-1.75-.12-2.42-.35-.67-.23-1.01-.59-1.01-1.06v-5.95ZM84.51,615.96c0-.67.22-1.21.66-1.61.44-.4.99-.61,1.67-.61h3.94c.67,0,1.23.2,1.67.61.44.4.66.94.66,1.61v5.45c0,.54-.24,1.02-.71,1.46-.47.44-1.01.66-1.62.66h-3.94c-.67,0-1.23-.22-1.67-.66-.44-.44-.66-.93-.66-1.46v-5.45ZM100.97,615.96c0-.67.25-1.21.76-1.61s1.06-.61,1.67-.61h3.94c.61,0,1.14.2,1.62.61.47.4.71.94.71,1.61v5.45c0,.54-.24,1.02-.71,1.46-.47.44-1.01.66-1.62.66h-3.94c-.61,0-1.16-.22-1.67-.66-.5-.44-.76-.93-.76-1.46v-5.45Z"/>
          <path class="st9" d="M111.46,604.35c-.94,0-1.75-.12-2.42-.35-.67-.23-1.01-.59-1.01-1.06v-5.95c0-.4.34-.72,1.01-.96.67-.23,1.48-.35,2.42-.35h22.31v8.68h-22.31Z"/>
          <path class="st9" d="M129.73,596.98c0-.4.34-.72,1.01-.96.67-.23,1.48-.35,2.42-.35h11.51v-35.53c0-.54.18-1.01.56-1.41.37-.4.82-.61,1.36-.61h4.64c.54,0,.99.2,1.36.61.37.4.56.87.56,1.41v4.04c1.75-1.35,3.7-2.44,5.85-3.28,2.15-.84,4.27-1.48,6.36-1.92,2.09-.44,4.04-.72,5.85-.86,1.82-.13,3.3-.2,4.44-.2,4.31,0,8.13.47,11.46,1.41,3.33.94,6.14,2.46,8.43,4.54,2.29,2.09,4.02,4.78,5.2,8.07,1.18,3.3,1.77,7.3,1.77,12.01v4.14c0,.94-.04,1.88-.1,2.83-.07.94-.17,1.83-.3,2.67-.14.84-.3,1.53-.5,2.07h8.18v8.68h-76.61c-.94,0-1.75-.12-2.42-.35-.67-.23-1.01-.59-1.01-1.06v-5.95ZM153.15,595.67c1.68.07,3.4.1,5.15.1h33.11c.94,0,1.62-.55,2.02-1.67s.61-3.45.61-7.02v-1.82c0-3.7-.42-6.76-1.26-9.18-.84-2.42-2.1-4.36-3.78-5.8-1.68-1.45-3.8-2.47-6.36-3.08-2.56-.61-5.55-.91-8.98-.91-1.01,0-2.37.08-4.09.25-1.72.17-3.55.46-5.5.86-1.95.4-3.9.96-5.85,1.67-1.95.71-3.63,1.63-5.05,2.78v23.82Z"/>
          <path class="st9" d="M205.73,596.98c0-.4.34-.72,1.01-.96.67-.23,1.48-.35,2.42-.35h7.07c1.95,0,3.2-.17,3.73-.5.54-.34.81-1.38.81-3.13v-12.92c0-2.08-.02-4.24-.05-6.46-.04-2.22-.09-4.64-.15-7.27,0-.54.15-.99.45-1.36.3-.37.72-.55,1.26-.55h4.85c.61,0,1.08.19,1.41.55.34.37.5.83.5,1.36.07,2.29.12,4.21.15,5.75.03,1.55.05,2.99.05,4.34v9.49c0,3.23-.02,6.22-.05,8.98-.04,2.76-.15,4.91-.35,6.46-.14.67-.35,1.25-.66,1.72-.3.47-.86.87-1.67,1.21-.54.2-1.28.35-2.22.45-.94.1-2.02.2-3.23.3-1.21.1-2.46.17-3.73.2-1.28.03-2.49.05-3.63.05h-4.54c-.94,0-1.75-.12-2.42-.35-.67-.23-1.01-.59-1.01-1.06v-5.95ZM212.7,615.96c0-.67.23-1.21.71-1.61.47-.4,1.01-.61,1.62-.61h4.34c.61,0,1.14.2,1.61.61.47.4.71.94.71,1.61v5.45c0,.54-.24,1.02-.71,1.46-.47.44-1.01.66-1.61.66h-4.34c-.61,0-1.15-.22-1.62-.66-.47-.44-.71-.93-.71-1.46v-5.45Z"/>
          <path class="st9" d="M275.28,576.49c1.21,0,1.72.67,1.51,2.02-.14.81-.24,1.65-.3,2.52l-.2,2.73c-.07.94-.12,1.82-.15,2.62-.03.81-.05,1.48-.05,2.02,0,3.5.22,6.75.66,9.74.44,2.99,1.43,5.59,2.98,7.77,1.55,2.19,3.8,3.9,6.76,5.15,2.96,1.24,7,1.87,12.11,1.87,1.08,0,2.3-.03,3.68-.1,1.38-.07,2.91-.27,4.59-.61,0-1.88.02-3.55.05-5,.03-1.45.05-2.81.05-4.09v-33.41c0-.54.18-1.01.56-1.41.37-.4.82-.61,1.36-.61h4.74c.54,0,.97.2,1.31.61.34.4.5.88.5,1.41v23.72c.47,1.08,1.43,1.75,2.88,2.02,1.45.27,2.74.4,3.89.4h3.23c.61,0,1.3-.05,2.07-.15.77-.1,1.5-.27,2.17-.5.67-.23,1.23-.59,1.67-1.06.44-.47.66-1.11.66-1.92v-25.54c0-.54.17-.99.5-1.36.34-.37.77-.55,1.31-.55h4.74c.54,0,.97.19,1.31.55.34.37.5.83.5,1.36v26.75c.2.54.61.96,1.21,1.26s1.33.54,2.17.71c.84.17,1.75.29,2.73.35.97.07,1.9.1,2.78.1h3.03c1.95,0,3.21-.15,3.78-.45.57-.3.86-1.36.86-3.18,0-4.71-.02-9.47-.05-14.28-.03-4.81-.08-9.84-.15-15.09,0-.54.17-.99.5-1.36.34-.37.77-.56,1.31-.56h4.64c.61,0,1.08.19,1.41.56.34.37.5.82.5,1.36.07,2.29.1,4.34.1,6.16l.1,5.25c.07,1.68.1,3.4.1,5.15v11.91c0,1.01-.03,2.05-.1,3.13l-.2,3.03c-.07,1.01-.14,1.92-.2,2.73-.14.74-.34,1.35-.61,1.82-.27.47-.81.88-1.62,1.21-.54.2-1.28.37-2.22.51-.94.14-1.92.24-2.93.3-1.01.07-2,.12-2.98.15-.98.03-1.77.05-2.37.05h-1.72c-2.36,0-4.83-.18-7.42-.55-2.59-.37-4.83-1.26-6.71-2.67-1.41,1.15-3.16,1.97-5.25,2.47-2.09.5-4.37.76-6.86.76h-2.42c-1.15,0-2.29-.1-3.43-.3-1.15-.2-2.12-.61-2.93-1.21,0,2.83-.02,5.64-.05,8.43-.04,2.79-.12,5-.25,6.61,0,1.14-.71,1.88-2.12,2.22-4.78,1.08-9.56,1.61-14.33,1.61-5.85,0-10.77-.66-14.74-1.97-3.97-1.31-7.15-3.23-9.54-5.75-2.39-2.52-4.09-5.64-5.1-9.34-1.01-3.7-1.51-7.94-1.51-12.72,0-.67.03-1.56.1-2.67.07-1.11.15-2.29.25-3.53.1-1.24.22-2.51.35-3.79.13-1.28.3-2.42.5-3.43.2-1.28.87-1.92,2.02-1.92h4.24Z"/>
          <path class="st9" d="M379.27,530.47c0-.54.18-1.01.56-1.41.37-.4.82-.61,1.36-.61h4.95c.54,0,.97.2,1.31.61.34.4.5.88.5,1.41v59.25c0,1.35.15,2.41.45,3.18.3.77.74,1.36,1.31,1.77.57.4,1.28.67,2.12.81.84.14,1.8.2,2.88.2h2.52v8.68h-4.74c-2.15,0-4.04-.18-5.65-.55-1.61-.37-2.99-1.04-4.14-2.02-1.14-.98-2-2.27-2.57-3.89-.57-1.61-.86-3.7-.86-6.26v-61.17Z"/>
          <path class="st9" d="M396.63,604.35c-.94,0-1.75-.12-2.42-.35-.67-.23-1.01-.59-1.01-1.06v-5.95c0-.4.34-.72,1.01-.96.67-.23,1.48-.35,2.42-.35h22.31v8.68h-22.31Z"/>
          <path class="st9" d="M414.9,596.98c0-.4.34-.72,1.01-.96.67-.23,1.48-.35,2.42-.35h4.54c.67,0,1.41-.03,2.22-.1.81-.07,1.58-.22,2.32-.45.74-.23,1.36-.61,1.87-1.11.5-.5.76-1.19.76-2.07v-26.44c0-.54.18-.99.56-1.36.37-.37.82-.55,1.36-.55h4.64c.54,0,.99.19,1.36.55.37.37.55.83.55,1.36v27.76c.2.54.62.96,1.26,1.26.64.3,1.35.54,2.12.71.77.17,1.56.29,2.37.35.81.07,1.51.1,2.12.1h1.41v8.68h-1.21c-2.09,0-4.32-.22-6.71-.66-2.39-.44-4.36-1.33-5.9-2.67-1.68,1.35-3.68,2.24-6.01,2.67-2.32.44-4.43.66-6.31.66h-3.33c-.94,0-1.75-.12-2.42-.35-.67-.23-1.01-.59-1.01-1.06v-5.95ZM420.25,615.96c0-.67.22-1.21.66-1.61.44-.4.99-.61,1.67-.61h3.94c.67,0,1.23.2,1.67.61.44.4.66.94.66,1.61v5.45c0,.54-.24,1.02-.71,1.46-.47.44-1.01.66-1.62.66h-3.94c-.67,0-1.23-.22-1.67-.66-.44-.44-.66-.93-.66-1.46v-5.45ZM436.7,615.96c0-.67.25-1.21.76-1.61s1.06-.61,1.67-.61h3.94c.61,0,1.14.2,1.62.61.47.4.71.94.71,1.61v5.45c0,.54-.24,1.02-.71,1.46-.47.44-1.01.66-1.62.66h-3.94c-.61,0-1.16-.22-1.67-.66-.5-.44-.76-.93-.76-1.46v-5.45Z"/>
          <path class="st9" d="M443.77,596.98c0-.4.34-.72,1.01-.96.67-.23,1.48-.35,2.42-.35h13.32c-1.75-1.41-3.1-3.3-4.04-5.65-.94-2.36-1.41-5.21-1.41-8.58v-2.42c0-6.86,2.07-12.18,6.21-15.95s9.87-5.65,17.21-5.65c2.76,0,5.47.12,8.13.35,2.66.24,4.93.62,6.81,1.16.67.14,1.11.34,1.31.61.2.27.3.67.3,1.21v34.92h8.68v8.68h-56.52c-.94,0-1.75-.12-2.42-.35-.67-.23-1.01-.59-1.01-1.06v-5.95ZM486.56,595.87v-29.98c-1.35-.2-2.71-.34-4.09-.4-1.38-.07-2.94-.1-4.69-.1-4.64,0-8.18,1.16-10.6,3.48-2.42,2.32-3.63,5.8-3.63,10.45v2.12c0,4.64,1.06,8.21,3.18,10.7,2.12,2.49,5.43,3.74,9.94,3.74h9.89ZM463.85,538.74c0-.67.22-1.21.66-1.61.44-.4.99-.61,1.67-.61h3.94c.67,0,1.23.2,1.67.61.44.4.66.94.66,1.61v5.45c0,.61-.24,1.11-.71,1.51-.47.4-1.01.61-1.61.61h-3.94c-.67,0-1.23-.2-1.67-.61-.44-.4-.66-.91-.66-1.51v-5.45ZM480.3,538.74c0-.67.25-1.21.76-1.61.5-.4,1.06-.61,1.67-.61h3.94c.61,0,1.14.2,1.61.61.47.4.71.94.71,1.61v5.45c0,.61-.24,1.11-.71,1.51-.47.4-1.01.61-1.61.61h-3.94c-.61,0-1.16-.2-1.67-.61-.5-.4-.76-.91-.76-1.51v-5.45Z"/>
          <path class="st9" d="M499.68,596.98c0-.4.34-.72,1.01-.96.67-.23,1.48-.35,2.42-.35h3.23c.47,0,1.08-.03,1.82-.1.74-.07,1.48-.23,2.22-.5.74-.27,1.4-.62,1.97-1.06.57-.44.96-1.06,1.16-1.87s.3-1.78.3-2.93v-9.69c0-6.93,1.8-12.25,5.4-15.95,3.6-3.7,8.76-5.55,15.49-5.55s11.81,1.82,15.24,5.45c3.43,3.63,5.15,8.95,5.15,15.95v5.15c0,7-1.62,12.3-4.85,15.9-3.23,3.6-8.48,5.4-15.75,5.4-3.77,0-7.08-.52-9.94-1.56-2.86-1.04-5.13-2.64-6.81-4.79-1.15,1.82-2.89,3.08-5.25,3.79-2.36.71-4.95,1.06-7.77,1.06h-1.61c-.94,0-1.75-.12-2.42-.35-.67-.23-1.01-.59-1.01-1.06v-5.95ZM522.29,584.77c0,2.15.13,4,.4,5.55.67,2.96,2.02,4.96,4.04,6.01,2.02,1.04,4.61,1.56,7.77,1.56,4.44,0,7.57-1.06,9.39-3.18,1.82-2.12,2.73-5.67,2.73-10.65v-3.74c0-4.58-.89-8.11-2.67-10.6-1.78-2.49-4.86-3.73-9.24-3.73s-7.62,1.23-9.54,3.68c-1.92,2.46-2.88,6.01-2.88,10.65v4.44Z"/>
        </g>
      </g>
    </g>
  </g>
</svg>